# xmcd
# Copyright (C) 1995-1998 Ti Kan
#
# Track frame offsets:
#       150
#       18014
#       33178
#       50817
#       67086
#       85638
#       105066
#       129517
#       146910
#       167231
#       193082
#       209837
#       227229
#       247207
#
# Disc length: 3547 seconds
#
# Revision: 0
# Processed by: cddbd v1.5.2PL0 Copyright (c) Steve Scherf et al.
# Submitted via: CD-Transfer v1.0
#
DISCID=ca0dd90e
DTITLE=Eg Fifauter - 
DYEAR=1900
DGENRE=
TTITLE0=Rückfau
TTITLE1=Beschäftigungstherapie
TTITLE2=City Of Win
TTITLE3=Aus Wäg Dä Ladys
TTITLE4=Nid Nötig
TTITLE5=Chin Vo De Individualisierig
TTITLE6=Egau Wohärä I Gange
TTITLE7=Begägnig
TTITLE8=Redä U Luufe
TTITLE9=Schwächi
TTITLE10=Mini Generation
TTITLE11=Heude
TTITLE12=Courage
TTITLE13=Egf
EXTD=
EXTT0=
EXTT1=
EXTT2=
EXTT3=
EXTT4=
EXTT5=
EXTT6=
EXTT7=
EXTT8=
EXTT9=
EXTT10=
EXTT11=
EXTT12=
EXTT13=
PLAYORDER=
